<svg xmlns="http://www.w3.org/2000/svg" viewBox="0 0 58 62"><defs><style>.a{fill:#ff0;}.b{fill:silver;}.c{fill:olive;}</style></defs><title>Asset 7</title><path class="a" d="M54,50V46H52V42H50V38H48V34H46V30H44V26H42V22H40V18H38V14H36V10H34V6H32V4H30V2H26V4H24V8H22v4H20v4H18v4H16v4H14v4H12v4H10v4H8v4H6v4H4v4H2V58H4v2H52V58h2V56h2V50ZM26,52V46h8v8H26Zm0-34h8V36H32v6H30v2H28V42H26V36H24V18Z"/><rect class="b" x="32" y="52" width="2" height="2"/><rect class="b" x="32" y="46" width="2" height="2"/><rect class="b" x="32" y="18" width="2" height="2"/><rect class="b" x="24" y="18" width="2" height="2"/><rect class="b" x="26" y="46" width="2" height="2"/><rect class="b" x="26" y="52" width="2" height="2"/><rect class="b" x="26" y="40" width="2" height="2"/><rect class="b" x="30" y="40" width="2" height="2"/><rect class="b" x="32" y="34" width="2" height="2"/><rect class="b" x="30" y="2" width="2" height="2"/><rect class="b" x="32" y="4" width="2" height="2"/><rect class="b" x="34" y="8" width="2" height="2"/><rect class="b" x="36" y="12" width="2" height="2"/><rect class="b" x="38" y="16" width="2" height="2"/><rect class="b" x="40" y="20" width="2" height="2"/><rect class="b" x="42" y="24" width="2" height="2"/><rect class="b" x="44" y="28" width="2" height="2"/><rect class="b" x="46" y="32" width="2" height="2"/><rect class="b" x="48" y="36" width="2" height="2"/><rect class="b" x="50" y="40" width="2" height="2"/><rect class="b" x="52" y="44" width="2" height="2"/><rect class="b" x="54" y="48" width="2" height="2"/><rect class="b" x="54" y="56" width="2" height="2"/><rect class="b" x="52" y="58" width="2" height="2"/><rect class="b" x="24" y="34" width="2" height="2"/><rect x="32" y="2" width="2" height="2"/><polygon points="36 4 34 4 34 6 34 8 36 8 36 6 36 4"/><polygon points="38 8 36 8 36 10 36 12 38 12 38 10 38 8"/><polygon points="40 12 38 12 38 14 38 16 40 16 40 14 40 12"/><polygon points="42 16 40 16 40 18 40 20 42 20 42 18 42 16"/><polygon points="44 20 42 20 42 22 42 24 44 24 44 22 44 20"/><polygon points="46 24 44 24 44 26 44 28 46 28 46 26 46 24"/><polygon points="48 28 46 28 46 30 46 32 48 32 48 30 48 28"/><polygon points="50 32 48 32 48 34 48 36 50 36 50 34 50 32"/><polygon points="52 36 50 36 50 38 50 40 52 40 52 38 52 36"/><polygon points="54 40 52 40 52 42 52 44 54 44 54 42 54 40"/><polygon points="56 44 54 44 54 46 54 48 56 48 56 46 56 44"/><rect x="56" y="48" width="2" height="10"/><rect x="54" y="58" width="2" height="2"/><polygon points="6 60 6 62 52 62 54 62 54 60 52 60 6 60"/><polygon points="26 38 28 38 28 40 28 42 28 44 30 44 30 42 30 40 30 38 32 38 32 32 34 32 34 20 32 20 32 18 26 18 26 20 24 20 24 32 26 32 26 38"/><polygon points="32 54 32 52 34 52 34 48 32 48 32 46 28 46 28 48 26 48 26 52 28 52 28 54 32 54"/><rect class="c" x="26" width="6" height="2"/><rect class="c" x="24" y="32" width="2" height="2"/><rect class="c" x="32" y="32" width="2" height="2"/><rect class="c" x="30" y="38" width="2" height="2"/><rect class="c" x="26" y="38" width="2" height="2"/><rect class="c" x="24" y="2" width="2" height="2"/><polygon class="c" points="22 6 22 8 24 8 24 6 24 4 22 4 22 6"/><polygon class="c" points="20 10 20 12 22 12 22 10 22 8 20 8 20 10"/><polygon class="c" points="18 14 18 16 20 16 20 14 20 12 18 12 18 14"/><polygon class="c" points="16 18 16 20 18 20 18 18 18 16 16 16 16 18"/><polygon class="c" points="14 22 14 24 16 24 16 22 16 20 14 20 14 22"/><polygon class="c" points="12 26 12 28 14 28 14 26 14 24 12 24 12 26"/><polygon class="c" points="10 30 10 32 12 32 12 30 12 28 10 28 10 30"/><polygon class="c" points="8 34 8 36 10 36 10 34 10 32 8 32 8 34"/><polygon class="c" points="6 38 6 40 8 40 8 38 8 36 6 36 6 38"/><polygon class="c" points="4 42 4 44 6 44 6 42 6 40 4 40 4 42"/><polygon class="c" points="2 46 2 48 4 48 4 46 4 44 2 44 2 46"/><rect class="c" y="48" width="2" height="10"/><rect class="c" x="2" y="58" width="2" height="2"/><rect class="c" x="4" y="60" width="2" height="2"/></svg>