<svg xmlns="http://www.w3.org/2000/svg" viewBox="0 0 112 91"><defs><style>.a{fill:silver;}.b{fill:blue;}.c{fill:#fff;}.d{fill:gray;}</style></defs><title>Asset 5</title><rect class="a" width="112" height="91"/><rect x="7" y="7" width="98" height="77"/><rect class="a" x="70" y="14" width="7" height="7"/><rect class="a" x="56" y="14" width="7" height="7"/><rect class="a" x="42" y="14" width="7" height="7"/><rect class="b" x="77" y="14" width="21" height="7"/><rect class="b" x="63" y="14" width="7" height="7"/><rect class="b" x="49" y="14" width="7" height="7"/><rect class="b" x="21" y="14" width="21" height="7"/><polygon class="c" points="28 28 21 28 21 35 28 35 35 35 35 28 28 28"/><rect class="c" x="35" y="35" width="7" height="7"/><rect class="c" x="14" y="35" width="7" height="21"/><polygon class="c" points="28 63 35 63 35 56 28 56 21 56 21 63 28 63"/><rect class="c" x="35" y="49" width="7" height="7"/><rect class="c" x="49" y="35" width="7" height="7"/><rect class="c" x="49" y="49" width="7" height="7"/><rect class="c" x="63" y="28" width="7" height="14"/><rect class="c" x="70" y="42" width="7" height="14"/><rect class="c" x="77" y="56" width="7" height="14"/><polygon class="d" points="105 7 105 14 98 14 98 21 105 21 105 84 7 84 7 91 112 91 112 84 112 7 105 7"/><rect class="d" x="7" y="14" width="14" height="7"/></svg>