<svg xmlns="http://www.w3.org/2000/svg" viewBox="0 0 128 116"><defs><style>.a{fill:gray;}.b{fill:#fff;}.c{fill:#0000bf;}.d{fill:silver;}</style></defs><title>exe-icon</title><path class="a" d="M0,0V112H124V0ZM120,104v4H4V4H120Z"/><polygon class="a" points="12 28 8 28 8 32 8 104 12 104 12 32 116 32 116 28 12 28"/><rect class="b" x="12" y="32" width="104" height="72"/><polygon class="c" points="8 8 8 24 84 24 84 12 120 12 120 8 8 8"/><polygon points="120 24 120 20 120 12 116 12 116 20 108 20 108 12 104 12 104 20 96 20 96 12 92 12 92 20 84 20 84 24 120 24"/><polygon points="124 0 124 112 0 112 0 116 128 116 128 0 124 0"/><rect class="d" x="84" y="12" width="8" height="8"/><rect class="d" x="96" y="12" width="8" height="8"/><rect class="d" x="108" y="12" width="8" height="8"/><path class="d" d="M120,8V4H4V108H120V24H8V8Zm-4,20v76H8V28Z"/></svg>