<svg xmlns="http://www.w3.org/2000/svg" viewBox="0 0 133.36 108.35"><defs><style>.a{fill:#fff;}.b{fill:#ff0;}.c{fill:silver;}.d{fill:gray;}.e{fill:olive;}</style></defs><title>folder-icon</title><polygon class="a" points="4.17 20.84 4.17 100.02 8.34 100.02 8.34 25 125.02 25 125.02 20.84 4.17 20.84"/><rect class="a" x="8.33" y="12.5" width="4.17" height="4.17"/><rect class="a" x="12.5" y="8.33" width="4.17" height="4.17"/><rect class="a" x="16.67" y="4.17" width="37.51" height="4.17"/><polygon class="b" points="16.67 8.34 16.67 12.5 12.5 12.5 12.5 16.67 58.34 16.67 58.34 8.34 16.67 8.34"/><rect class="b" x="8.33" y="25" width="116.69" height="75.01"/><polygon class="c" points="66.68 20.84 66.68 16.67 62.51 16.67 62.51 12.5 58.34 12.5 58.34 16.67 54.18 16.67 54.18 12.5 50.01 12.5 50.01 16.67 45.84 16.67 45.84 12.5 41.67 12.5 41.67 16.67 37.51 16.67 37.51 12.5 33.34 12.5 33.34 16.67 29.17 16.67 29.17 12.5 25 12.5 25 16.67 20.84 16.67 20.84 12.5 16.67 12.5 16.67 16.67 12.5 16.67 8.34 16.67 4.17 16.67 4.17 20.84 66.68 20.84"/><rect class="c" x="54.18" y="8.33" width="4.17" height="4.17"/><rect class="c" x="45.84" y="8.33" width="4.17" height="4.17"/><rect class="c" x="37.51" y="8.33" width="4.17" height="4.17"/><rect class="c" x="29.17" y="8.33" width="4.17" height="4.17"/><rect class="c" x="20.84" y="8.33" width="4.17" height="4.17"/><rect class="c" x="12.5" y="25" width="4.17" height="4.17"/><rect class="c" x="20.84" y="25" width="4.17" height="4.17"/><rect class="c" x="29.17" y="25" width="4.17" height="4.17"/><rect class="c" x="37.51" y="25" width="4.17" height="4.17"/><rect class="c" x="45.84" y="25" width="4.17" height="4.17"/><rect class="c" x="54.18" y="25" width="4.17" height="4.17"/><rect class="c" x="62.51" y="25" width="4.17" height="4.17"/><rect class="c" x="70.85" y="25" width="4.17" height="4.17"/><rect class="c" x="79.18" y="25" width="4.17" height="4.17"/><rect class="c" x="87.52" y="25" width="4.17" height="4.17"/><rect class="c" x="95.85" y="25" width="4.17" height="4.17"/><rect class="c" x="104.19" y="25" width="4.17" height="4.17"/><rect class="c" x="112.52" y="25" width="4.17" height="4.17"/><rect class="c" x="120.86" y="25" width="4.17" height="4.17"/><rect class="c" x="16.67" y="29.17" width="4.17" height="4.17"/><rect class="c" x="8.33" y="29.17" width="4.17" height="4.17"/><rect class="c" x="25" y="29.17" width="4.17" height="4.17"/><rect class="c" x="33.34" y="29.17" width="4.17" height="4.17"/><rect class="c" x="41.67" y="29.17" width="4.17" height="4.17"/><rect class="c" x="50.01" y="29.17" width="4.17" height="4.17"/><rect class="c" x="58.34" y="29.17" width="4.17" height="4.17"/><rect class="c" x="66.68" y="29.17" width="4.17" height="4.17"/><rect class="c" x="75.01" y="29.17" width="4.17" height="4.17"/><rect class="c" x="83.35" y="29.17" width="4.17" height="4.17"/><rect class="c" x="91.68" y="29.17" width="4.17" height="4.17"/><rect class="c" x="100.02" y="29.17" width="4.17" height="4.17"/><rect class="c" x="108.35" y="29.17" width="4.17" height="4.17"/><rect class="c" x="116.69" y="29.17" width="4.17" height="4.17"/><rect class="c" x="16.67" y="37.51" width="4.17" height="4.17"/><rect class="c" x="8.33" y="37.51" width="4.17" height="4.17"/><rect class="c" x="25" y="37.51" width="4.17" height="4.17"/><rect class="c" x="33.34" y="37.51" width="4.17" height="4.17"/><rect class="c" x="41.67" y="37.51" width="4.17" height="4.17"/><rect class="c" x="50.01" y="37.51" width="4.17" height="4.17"/><rect class="c" x="58.34" y="37.51" width="4.17" height="4.17"/><rect class="c" x="66.68" y="37.51" width="4.17" height="4.17"/><rect class="c" x="75.01" y="37.51" width="4.17" height="4.17"/><rect class="c" x="83.35" y="37.51" width="4.17" height="4.17"/><rect class="c" x="91.68" y="37.51" width="4.17" height="4.17"/><rect class="c" x="100.02" y="37.51" width="4.17" height="4.17"/><rect class="c" x="108.35" y="37.51" width="4.17" height="4.17"/><rect class="c" x="116.69" y="37.51" width="4.17" height="4.17"/><rect class="c" x="12.5" y="33.34" width="4.17" height="4.17"/><rect class="c" x="20.84" y="33.34" width="4.17" height="4.17"/><rect class="c" x="29.17" y="33.34" width="4.17" height="4.17"/><rect class="c" x="37.51" y="33.34" width="4.17" height="4.17"/><rect class="c" x="45.84" y="33.34" width="4.17" height="4.17"/><rect class="c" x="54.18" y="33.34" width="4.17" height="4.17"/><rect class="c" x="62.51" y="33.34" width="4.17" height="4.17"/><rect class="c" x="70.85" y="33.34" width="4.17" height="4.17"/><rect class="c" x="79.18" y="33.34" width="4.17" height="4.17"/><rect class="c" x="87.52" y="33.34" width="4.17" height="4.17"/><rect class="c" x="95.85" y="33.34" width="4.17" height="4.17"/><rect class="c" x="104.19" y="33.34" width="4.17" height="4.17"/><rect class="c" x="112.52" y="33.34" width="4.17" height="4.17"/><rect class="c" x="120.86" y="33.34" width="4.17" height="4.17"/><rect class="c" x="12.5" y="41.67" width="4.17" height="4.17"/><rect class="c" x="20.84" y="41.67" width="4.17" height="4.17"/><rect class="c" x="29.17" y="41.67" width="4.17" height="4.17"/><rect class="c" x="37.51" y="41.67" width="4.17" height="4.17"/><rect class="c" x="45.84" y="41.67" width="4.17" height="4.17"/><rect class="c" x="54.18" y="41.67" width="4.17" height="4.17"/><rect class="c" x="62.51" y="41.67" width="4.17" height="4.17"/><rect class="c" x="70.85" y="41.67" width="4.17" height="4.17"/><rect class="c" x="79.18" y="41.67" width="4.17" height="4.17"/><rect class="c" x="87.52" y="41.67" width="4.17" height="4.17"/><rect class="c" x="95.85" y="41.67" width="4.17" height="4.17"/><rect class="c" x="104.19" y="41.67" width="4.17" height="4.17"/><rect class="c" x="112.52" y="41.67" width="4.17" height="4.17"/><rect class="c" x="120.86" y="41.67" width="4.17" height="4.17"/><rect class="c" x="16.67" y="45.84" width="4.17" height="4.17"/><rect class="c" x="8.33" y="45.84" width="4.17" height="4.17"/><rect class="c" x="25" y="45.84" width="4.17" height="4.17"/><rect class="c" x="33.34" y="45.84" width="4.17" height="4.17"/><rect class="c" x="41.67" y="45.84" width="4.17" height="4.17"/><rect class="c" x="50.01" y="45.84" width="4.17" height="4.17"/><rect class="c" x="58.34" y="45.84" width="4.17" height="4.17"/><rect class="c" x="66.68" y="45.84" width="4.17" height="4.17"/><rect class="c" x="75.01" y="45.84" width="4.17" height="4.17"/><rect class="c" x="83.35" y="45.84" width="4.17" height="4.17"/><rect class="c" x="91.68" y="45.84" width="4.17" height="4.17"/><rect class="c" x="100.02" y="45.84" width="4.17" height="4.17"/><rect class="c" x="108.35" y="45.84" width="4.17" height="4.17"/><rect class="c" x="116.69" y="45.84" width="4.17" height="4.17"/><rect class="c" x="12.5" y="50.01" width="4.17" height="4.17"/><rect class="c" x="20.84" y="50.01" width="4.17" height="4.17"/><rect class="c" x="29.17" y="50.01" width="4.17" height="4.17"/><rect class="c" x="37.51" y="50.01" width="4.17" height="4.17"/><rect class="c" x="45.84" y="50.01" width="4.17" height="4.17"/><rect class="c" x="54.18" y="50.01" width="4.17" height="4.17"/><rect class="c" x="62.51" y="50.01" width="4.17" height="4.17"/><rect class="c" x="70.85" y="50.01" width="4.17" height="4.17"/><rect class="c" x="79.18" y="50.01" width="4.17" height="4.17"/><rect class="c" x="87.52" y="50.01" width="4.17" height="4.17"/><rect class="c" x="95.85" y="50.01" width="4.17" height="4.17"/><rect class="c" x="104.19" y="50.01" width="4.17" height="4.17"/><rect class="c" x="112.52" y="50.01" width="4.17" height="4.17"/><rect class="c" x="120.86" y="50.01" width="4.17" height="4.17"/><rect class="c" x="16.67" y="54.18" width="4.17" height="4.17"/><rect class="c" x="8.33" y="54.18" width="4.17" height="4.17"/><rect class="c" x="25" y="54.18" width="4.17" height="4.17"/><rect class="c" x="33.34" y="54.18" width="4.17" height="4.17"/><rect class="c" x="41.67" y="54.18" width="4.17" height="4.17"/><rect class="c" x="50.01" y="54.18" width="4.17" height="4.17"/><rect class="c" x="58.34" y="54.18" width="4.17" height="4.17"/><rect class="c" x="66.68" y="54.18" width="4.17" height="4.17"/><rect class="c" x="75.01" y="54.18" width="4.17" height="4.17"/><rect class="c" x="83.35" y="54.18" width="4.17" height="4.17"/><rect class="c" x="91.68" y="54.18" width="4.17" height="4.17"/><rect class="c" x="100.02" y="54.18" width="4.17" height="4.17"/><rect class="c" x="108.35" y="54.18" width="4.17" height="4.17"/><rect class="c" x="116.69" y="54.18" width="4.17" height="4.17"/><rect class="c" x="12.5" y="58.34" width="4.17" height="4.17"/><rect class="c" x="20.84" y="58.34" width="4.17" height="4.17"/><rect class="c" x="29.17" y="58.34" width="4.17" height="4.17"/><rect class="c" x="37.51" y="58.34" width="4.17" height="4.17"/><rect class="c" x="45.84" y="58.34" width="4.17" height="4.17"/><rect class="c" x="54.18" y="58.34" width="4.17" height="4.17"/><rect class="c" x="62.51" y="58.34" width="4.17" height="4.17"/><rect class="c" x="70.85" y="58.34" width="4.17" height="4.17"/><rect class="c" x="79.18" y="58.34" width="4.17" height="4.17"/><rect class="c" x="87.52" y="58.34" width="4.17" height="4.17"/><rect class="c" x="95.85" y="58.34" width="4.17" height="4.17"/><rect class="c" x="104.19" y="58.34" width="4.17" height="4.17"/><rect class="c" x="112.52" y="58.34" width="4.17" height="4.17"/><rect class="c" x="120.86" y="58.34" width="4.17" height="4.17"/><rect class="c" x="16.67" y="62.51" width="4.17" height="4.17"/><rect class="c" x="8.33" y="62.51" width="4.17" height="4.17"/><rect class="c" x="25" y="62.51" width="4.17" height="4.17"/><rect class="c" x="33.34" y="62.51" width="4.17" height="4.17"/><rect class="c" x="41.67" y="62.51" width="4.17" height="4.17"/><rect class="c" x="50.01" y="62.51" width="4.17" height="4.17"/><rect class="c" x="58.34" y="62.51" width="4.17" height="4.17"/><rect class="c" x="66.68" y="62.51" width="4.17" height="4.17"/><rect class="c" x="75.01" y="62.51" width="4.17" height="4.17"/><rect class="c" x="83.35" y="62.51" width="4.17" height="4.17"/><rect class="c" x="91.68" y="62.51" width="4.17" height="4.17"/><rect class="c" x="100.02" y="62.51" width="4.17" height="4.17"/><rect class="c" x="108.35" y="62.51" width="4.17" height="4.17"/><rect class="c" x="116.69" y="62.51" width="4.17" height="4.17"/><rect class="c" x="12.5" y="66.68" width="4.17" height="4.17"/><rect class="c" x="20.84" y="66.68" width="4.17" height="4.17"/><rect class="c" x="29.17" y="66.68" width="4.17" height="4.17"/><rect class="c" x="37.51" y="66.68" width="4.17" height="4.17"/><rect class="c" x="45.84" y="66.68" width="4.17" height="4.17"/><rect class="c" x="54.18" y="66.68" width="4.17" height="4.17"/><rect class="c" x="62.51" y="66.68" width="4.17" height="4.17"/><rect class="c" x="70.85" y="66.68" width="4.17" height="4.17"/><rect class="c" x="79.18" y="66.68" width="4.17" height="4.17"/><rect class="c" x="87.52" y="66.68" width="4.17" height="4.17"/><rect class="c" x="95.85" y="66.68" width="4.17" height="4.17"/><rect class="c" x="104.19" y="66.68" width="4.17" height="4.17"/><rect class="c" x="112.52" y="66.68" width="4.17" height="4.17"/><rect class="c" x="120.86" y="66.68" width="4.17" height="4.17"/><rect class="c" x="16.67" y="70.85" width="4.17" height="4.17"/><rect class="c" x="8.33" y="70.85" width="4.17" height="4.17"/><rect class="c" x="25" y="70.85" width="4.17" height="4.17"/><rect class="c" x="33.34" y="70.85" width="4.17" height="4.17"/><rect class="c" x="41.67" y="70.85" width="4.17" height="4.17"/><rect class="c" x="50.01" y="70.85" width="4.17" height="4.17"/><rect class="c" x="58.34" y="70.85" width="4.17" height="4.17"/><rect class="c" x="66.68" y="70.85" width="4.17" height="4.17"/><rect class="c" x="75.01" y="70.85" width="4.17" height="4.17"/><rect class="c" x="83.35" y="70.85" width="4.17" height="4.17"/><rect class="c" x="91.68" y="70.85" width="4.17" height="4.17"/><rect class="c" x="100.02" y="70.85" width="4.17" height="4.17"/><rect class="c" x="108.35" y="70.85" width="4.17" height="4.17"/><rect class="c" x="116.69" y="70.85" width="4.17" height="4.17"/><rect class="c" x="12.5" y="75.01" width="4.17" height="4.17"/><rect class="c" x="20.84" y="75.01" width="4.17" height="4.17"/><rect class="c" x="29.17" y="75.01" width="4.17" height="4.17"/><rect class="c" x="37.51" y="75.01" width="4.17" height="4.17"/><rect class="c" x="45.84" y="75.01" width="4.17" height="4.17"/><rect class="c" x="54.18" y="75.01" width="4.17" height="4.17"/><rect class="c" x="62.51" y="75.01" width="4.17" height="4.17"/><rect class="c" x="70.85" y="75.01" width="4.17" height="4.17"/><rect class="c" x="79.18" y="75.01" width="4.17" height="4.17"/><rect class="c" x="87.52" y="75.01" width="4.17" height="4.17"/><rect class="c" x="95.85" y="75.01" width="4.17" height="4.17"/><rect class="c" x="104.19" y="75.01" width="4.17" height="4.17"/><rect class="c" x="112.52" y="75.01" width="4.17" height="4.17"/><rect class="c" x="120.86" y="75.01" width="4.17" height="4.17"/><rect class="c" x="16.67" y="79.18" width="4.17" height="4.17"/><rect class="c" x="8.33" y="79.18" width="4.17" height="4.17"/><rect class="c" x="25" y="79.18" width="4.17" height="4.17"/><rect class="c" x="33.34" y="79.18" width="4.17" height="4.17"/><rect class="c" x="41.67" y="79.18" width="4.17" height="4.17"/><rect class="c" x="50.01" y="79.18" width="4.17" height="4.17"/><rect class="c" x="58.34" y="79.18" width="4.17" height="4.17"/><rect class="c" x="66.68" y="79.18" width="4.17" height="4.17"/><rect class="c" x="75.01" y="79.18" width="4.17" height="4.17"/><rect class="c" x="83.35" y="79.18" width="4.17" height="4.17"/><rect class="c" x="91.68" y="79.18" width="4.17" height="4.17"/><rect class="c" x="100.02" y="79.18" width="4.17" height="4.17"/><rect class="c" x="108.35" y="79.18" width="4.17" height="4.17"/><rect class="c" x="116.69" y="79.18" width="4.17" height="4.17"/><rect class="c" x="12.5" y="83.35" width="4.17" height="4.17"/><rect class="c" x="20.84" y="83.35" width="4.17" height="4.17"/><rect class="c" x="29.17" y="83.35" width="4.17" height="4.17"/><rect class="c" x="37.51" y="83.35" width="4.17" height="4.17"/><rect class="c" x="45.84" y="83.35" width="4.17" height="4.17"/><rect class="c" x="54.18" y="83.35" width="4.17" height="4.17"/><rect class="c" x="62.51" y="83.35" width="4.17" height="4.17"/><rect class="c" x="70.85" y="83.35" width="4.17" height="4.17"/><rect class="c" x="79.18" y="83.35" width="4.17" height="4.17"/><rect class="c" x="87.52" y="83.35" width="4.17" height="4.17"/><rect class="c" x="95.85" y="83.35" width="4.17" height="4.17"/><rect class="c" x="104.19" y="83.35" width="4.17" height="4.17"/><rect class="c" x="112.52" y="83.35" width="4.17" height="4.17"/><rect class="c" x="120.86" y="83.35" width="4.17" height="4.17"/><rect class="c" x="16.67" y="87.52" width="4.17" height="4.17"/><rect class="c" x="8.33" y="87.52" width="4.17" height="4.17"/><rect class="c" x="25" y="87.52" width="4.17" height="4.17"/><rect class="c" x="33.34" y="87.52" width="4.17" height="4.17"/><rect class="c" x="41.67" y="87.52" width="4.17" height="4.17"/><rect class="c" x="50.01" y="87.52" width="4.17" height="4.17"/><rect class="c" x="58.34" y="87.52" width="4.17" height="4.17"/><rect class="c" x="66.68" y="87.52" width="4.17" height="4.17"/><rect class="c" x="75.01" y="87.52" width="4.17" height="4.17"/><rect class="c" x="83.35" y="87.52" width="4.17" height="4.17"/><rect class="c" x="91.68" y="87.52" width="4.17" height="4.17"/><rect class="c" x="100.02" y="87.52" width="4.17" height="4.17"/><rect class="c" x="108.35" y="87.52" width="4.17" height="4.17"/><rect class="c" x="116.69" y="87.52" width="4.17" height="4.17"/><rect class="c" x="16.67" y="95.85" width="4.17" height="4.17"/><rect class="c" x="8.33" y="95.85" width="4.17" height="4.17"/><rect class="c" x="25" y="95.85" width="4.17" height="4.17"/><rect class="c" x="33.34" y="95.85" width="4.17" height="4.17"/><rect class="c" x="41.67" y="95.85" width="4.17" height="4.17"/><rect class="c" x="50.01" y="95.85" width="4.17" height="4.17"/><rect class="c" x="58.34" y="95.85" width="4.17" height="4.17"/><rect class="c" x="66.68" y="95.85" width="4.17" height="4.17"/><rect class="c" x="75.01" y="95.85" width="4.17" height="4.17"/><rect class="c" x="83.35" y="95.85" width="4.17" height="4.17"/><rect class="c" x="91.68" y="95.85" width="4.17" height="4.17"/><rect class="c" x="100.02" y="95.85" width="4.17" height="4.17"/><rect class="c" x="108.35" y="95.85" width="4.17" height="4.17"/><rect class="c" x="116.69" y="95.85" width="4.17" height="4.17"/><rect class="c" x="12.5" y="91.68" width="4.17" height="4.17"/><rect class="c" x="20.84" y="91.68" width="4.17" height="4.17"/><rect class="c" x="29.17" y="91.68" width="4.17" height="4.17"/><rect class="c" x="37.51" y="91.68" width="4.17" height="4.17"/><rect class="c" x="45.84" y="91.68" width="4.17" height="4.17"/><rect class="c" x="54.18" y="91.68" width="4.17" height="4.17"/><rect class="c" x="62.51" y="91.68" width="4.17" height="4.17"/><rect class="c" x="70.85" y="91.68" width="4.17" height="4.17"/><rect class="c" x="79.18" y="91.68" width="4.17" height="4.17"/><rect class="c" x="87.52" y="91.68" width="4.17" height="4.17"/><rect class="c" x="95.85" y="91.68" width="4.17" height="4.17"/><rect class="c" x="104.19" y="91.68" width="4.17" height="4.17"/><rect class="c" x="112.52" y="91.68" width="4.17" height="4.17"/><rect class="c" x="120.86" y="91.68" width="4.17" height="4.17"/><rect class="d" y="16.67" width="4.17" height="87.52"/><rect class="d" x="4.17" y="12.5" width="4.17" height="4.17"/><rect class="d" x="8.33" y="8.33" width="4.17" height="4.17"/><rect class="d" x="12.5" y="4.17" width="4.17" height="4.17"/><rect class="d" x="16.67" width="37.51" height="4.17"/><rect class="d" x="54.18" y="4.17" width="4.17" height="4.17"/><rect class="d" x="58.34" y="8.33" width="4.17" height="4.17"/><rect class="d" x="62.51" y="12.5" width="4.17" height="4.17"/><rect class="d" x="66.68" y="16.67" width="58.34" height="4.17"/><polygon points="129.19 20.84 129.19 16.67 125.02 16.67 125.02 25 129.19 25 129.19 104.19 133.36 104.19 133.36 20.84 129.19 20.84"/><rect x="4.17" y="104.19" width="125.02" height="4.17"/><polygon class="e" points="125.02 25 125.02 100.02 4.17 100.02 4.17 104.19 129.19 104.19 129.19 25 125.02 25"/></svg>