<svg xmlns="http://www.w3.org/2000/svg" xmlns:xlink="http://www.w3.org/1999/xlink" viewBox="0 0 105.27 124.77"><defs><style>.a{fill:#7f7f7f;}.b{fill:#bfbfbf;}.c{fill:#fff;}</style><symbol id="a" viewBox="0 0 105.28 124.77"><rect class="a" x="3.9" y="3.9" width="3.9" height="3.9"/><rect class="a" x="11.7" y="3.9" width="7.8" height="3.9"/><rect class="a" x="23.39" y="3.9" width="7.8" height="3.9"/><rect class="a" x="35.09" y="3.9" width="7.8" height="3.9"/><rect class="a" x="46.79" y="3.9" width="7.8" height="3.9"/><rect class="a" x="58.49" y="3.9" width="7.8" height="3.9"/><rect class="a" x="70.18" y="3.9" width="7.8" height="3.9"/><rect class="a" x="81.88" y="3.9" width="7.8" height="3.9"/><rect class="a" x="93.58" y="3.9" width="3.9" height="3.9"/><rect class="a" y="7.8" width="3.9" height="109.17"/><rect class="a" x="89.68" y="7.8" width="3.9" height="7.8"/><rect class="b" x="89.68" y="15.6" width="3.9" height="101.38"/><rect class="b" x="93.58" y="116.97" width="3.9" height="3.9"/><rect class="b" x="7.8" y="116.97" width="81.88" height="3.9"/><rect class="b" x="97.48" y="7.8" width="3.9" height="109.17"/><rect x="93.58" y="7.8" width="3.9" height="109.17"/><polygon points="93.58 116.97 89.68 116.97 89.68 120.87 7.8 120.87 7.8 124.77 97.48 124.77 97.48 120.87 93.58 120.87 93.58 116.97"/><rect x="97.48" y="116.97" width="3.9" height="3.9"/><rect x="101.38" y="7.8" width="3.9" height="109.17"/><rect x="97.48" y="3.9" width="3.9" height="3.9"/><rect x="89.68" width="3.9" height="3.9"/><rect x="77.98" width="7.8" height="3.9"/><rect x="66.28" width="7.8" height="3.9"/><rect x="54.59" width="7.8" height="3.9"/><rect x="42.89" width="7.8" height="3.9"/><rect x="31.19" width="7.8" height="3.9"/><rect x="19.5" width="7.8" height="3.9"/><rect x="7.8" width="7.8" height="3.9"/><rect x="3.9" y="116.97" width="3.9" height="3.9"/><polygon points="11.7 11.7 11.7 7.8 7.8 7.8 7.8 11.7 7.8 15.6 11.7 15.6 11.7 11.7"/><polygon points="23.39 11.7 23.39 7.8 19.5 7.8 19.5 11.7 19.5 15.6 23.39 15.6 23.39 11.7"/><polygon points="35.09 11.7 35.09 7.8 31.19 7.8 31.19 11.7 31.19 15.6 35.09 15.6 35.09 11.7"/><polygon points="46.79 11.7 46.79 7.8 42.89 7.8 42.89 11.7 42.89 15.6 46.79 15.6 46.79 11.7"/><polygon points="58.49 11.7 58.49 7.8 54.59 7.8 54.59 11.7 54.59 15.6 58.49 15.6 58.49 11.7"/><polygon points="70.18 11.7 70.18 7.8 66.28 7.8 66.28 11.7 66.28 15.6 70.18 15.6 70.18 11.7"/><polygon points="81.88 11.7 81.88 7.8 77.98 7.8 77.98 11.7 77.98 15.6 81.88 15.6 81.88 11.7"/><rect x="11.7" y="27.29" width="23.39" height="3.9"/><rect x="62.38" y="27.29" width="3.9" height="3.9"/><rect x="70.18" y="27.29" width="11.7" height="3.9"/><rect x="11.7" y="35.09" width="23.39" height="3.9"/><rect x="11.7" y="50.69" width="23.39" height="3.9"/><rect x="11.7" y="62.38" width="70.18" height="3.9"/><rect x="11.7" y="70.18" width="70.18" height="3.9"/><rect x="11.7" y="77.98" width="70.18" height="3.9"/><rect x="11.7" y="85.78" width="70.18" height="3.9"/><rect x="11.7" y="97.48" width="23.39" height="3.9"/><rect x="11.7" y="105.27" width="23.39" height="3.9"/><rect class="c" x="7.8" y="3.9" width="3.9" height="3.9"/><rect class="c" x="19.5" y="3.9" width="3.9" height="3.9"/><rect class="c" x="31.19" y="3.9" width="3.9" height="3.9"/><rect class="c" x="42.89" y="3.9" width="3.9" height="3.9"/><rect class="c" x="54.59" y="3.9" width="3.9" height="3.9"/><rect class="c" x="66.28" y="3.9" width="3.9" height="3.9"/><rect class="c" x="77.98" y="3.9" width="3.9" height="3.9"/><rect class="c" x="89.68" y="3.9" width="3.9" height="3.9"/><path class="c" d="M81.88,7.8v7.8H78V7.8h-7.8v7.8h-3.9V7.8H58.49v7.8h-3.9V7.8h-7.8v7.8h-3.9V7.8h-7.8v7.8h-3.9V7.8h-7.8v7.8H19.5V7.8H11.7v7.8H7.8V7.8H3.9V117H89.68V7.8Zm0,23.39H70.18v-3.9h11.7Zm0,35.09H11.7v-3.9H81.88Zm0,7.8H11.7v-3.9H81.88Zm0,7.8H11.7V78H81.88Zm0,7.8H11.7v-3.9H81.88ZM11.7,105.27H35.09v3.9H11.7Zm0-7.79H35.09v3.9H11.7Zm0-46.79H35.09v3.9H11.7Zm0-15.6H35.09V39H11.7Zm0-7.8H35.09v3.9H11.7Zm54.58,3.9h-3.9v-3.9h3.9Z"/></symbol></defs><use width="105.27" height="124.77" xlink:href="#a"/></svg>