<svg xmlns="http://www.w3.org/2000/svg" viewBox="0 0 128 128"><defs><style>.a{fill:#848484;}.b{fill:#ff0;}.c{fill:#848400;}.d{fill:#fff;}.e{fill:#c6c6c6;}</style></defs><title>Asset 4</title><polygon class="a" points="24 40 28 40 28 36 32 36 32 32 20 32 20 60 24 60 24 40"/><polygon class="a" points="32 64 28 64 28 60 24 60 24 108 28 108 28 68 32 68 32 64"/><rect class="a" x="32" y="68" width="4" height="4"/><polygon class="a" points="36 80 40 80 40 76 40 72 36 72 36 76 36 80"/><polygon class="a" points="48 72 44 72 44 76 44 88 40 88 40 92 44 92 44 116 48 116 48 76 52 76 52 72 52 68 48 68 48 72"/><rect class="a" x="56" y="60" width="4" height="4"/><rect class="a" x="60" y="40" width="4" height="20"/><rect class="a" x="56" y="36" width="4" height="4"/><polygon class="a" points="56 28 52 28 52 32 52 36 56 36 56 32 56 28"/><polygon class="a" points="40 40 40 44 40 48 44 48 44 44 48 44 48 40 44 40 40 40"/><polygon class="a" points="32 84 32 88 36 88 36 84 36 80 32 80 32 84"/><rect class="a" x="32" y="100" width="4" height="4"/><rect class="a" x="36" y="96" width="4" height="4"/><polygon class="a" points="36 116 36 120 40 120 40 116 40 112 36 112 36 116"/><polygon class="a" points="48 32 48 28 36 28 36 20 28 20 28 16 24 16 24 20 12 20 12 24 32 24 32 32 36 32 48 32"/><rect class="a" x="44" y="20" width="4" height="4"/><rect class="a" x="40" y="16" width="4" height="4"/><rect class="a" y="32" width="4" height="20"/><rect class="a" x="4" y="28" width="4" height="4"/><rect class="a" x="8" y="24" width="4" height="4"/><rect class="a" x="4" y="52" width="4" height="4"/><rect class="a" x="8" y="56" width="4" height="4"/><rect class="a" x="12" y="60" width="4" height="4"/><rect class="a" x="16" y="64" width="4" height="8"/><rect class="a" x="12" y="72" width="4" height="8"/><rect class="a" x="16" y="88" width="4" height="4"/><rect class="a" x="12" y="92" width="4" height="4"/><rect class="a" x="16" y="104" width="4" height="8"/><polygon class="a" points="112 52 112 48 116 48 116 44 120 44 120 48 124 48 124 108 120 108 120 116 116 116 116 52 112 52"/><rect class="a" x="72" y="44" width="28" height="8"/><polygon class="b" points="64 20 64 16 60 16 60 36 64 36 64 20"/><rect class="b" x="64" y="12" width="4" height="4"/><rect class="b" x="68" y="8" width="8" height="4"/><rect class="b" x="76" y="4" width="16" height="4"/><rect class="b" x="92" y="8" width="4" height="4"/><rect class="b" x="96" y="16" width="4" height="4"/><polyline class="b" points="112 60 108 60 108 56 68 56 68 60 64 60 64 64 60 64 60 68 60 72 56 72 56 112 112 112"/><rect class="c" x="56" y="16" width="4" height="16"/><rect class="c" x="60" y="12" width="4" height="4"/><rect class="c" x="64" y="8" width="4" height="4"/><rect class="c" x="68" y="4" width="8" height="4"/><rect class="c" x="76" width="16" height="4"/><rect class="c" x="64" y="20" width="4" height="20"/><rect class="c" x="68" y="16" width="4" height="4"/><rect class="c" x="72" y="12" width="4" height="4"/><rect class="c" x="76" y="8" width="12" height="4"/><rect class="c" x="92" y="16" width="4" height="4"/><polygon class="c" points="96 40 72 40 72 48 76 48 76 44 80 44 80 48 84 48 84 44 88 44 88 48 92 48 92 44 96 44 96 48 100 48 100 20 96 20 96 40"/><rect class="c" x="96" y="8" width="4" height="4"/><rect class="c" x="100" y="12" width="4" height="4"/><rect class="c" x="104" y="16" width="4" height="32"/><polygon class="c" points="120 44 120 40 112 40 112 44 112 48 116 48 116 44 120 44"/><rect class="c" x="120" y="44" width="4" height="4"/><rect class="c" x="92" y="48" width="4" height="4"/><rect class="c" x="84" y="48" width="4" height="4"/><rect class="c" x="76" y="48" width="4" height="4"/><rect class="c" x="68" y="48" width="4" height="4"/><rect class="c" x="108" y="48" width="4" height="4"/><rect class="c" x="116" y="48" width="4" height="4"/><rect class="c" x="120" y="52" width="4" height="4"/><rect class="c" x="116" y="56" width="4" height="4"/><rect class="c" x="120" y="60" width="4" height="4"/><rect class="c" x="116" y="64" width="4" height="4"/><rect class="c" x="120" y="68" width="4" height="4"/><rect class="c" x="116" y="72" width="4" height="4"/><rect class="c" x="120" y="76" width="4" height="4"/><rect class="c" x="116" y="80" width="4" height="4"/><rect class="c" x="120" y="84" width="4" height="4"/><rect class="c" x="116" y="88" width="4" height="4"/><rect class="c" x="120" y="92" width="4" height="4"/><rect class="c" x="116" y="96" width="4" height="4"/><rect class="c" x="120" y="100" width="4" height="4"/><rect class="c" x="116" y="104" width="4" height="4"/><rect class="c" x="56" y="112" width="60" height="4"/><rect class="c" x="120" y="108" width="4" height="4"/><rect class="d" x="68" y="52" width="40" height="4"/><rect class="d" x="108" y="56" width="4" height="4"/><rect class="d" x="36" y="48" width="4" height="4"/><rect class="d" x="36" y="56" width="4" height="4"/><rect class="d" x="40" y="52" width="4" height="4"/><rect class="d" x="40" y="60" width="4" height="4"/><rect class="d" x="44" y="56" width="4" height="4"/><rect class="d" x="48" y="60" width="4" height="4"/><rect class="d" x="52" y="48" width="4" height="4"/><rect class="d" x="48" y="52" width="4" height="4"/><rect class="d" x="36" y="80" width="4" height="8"/><rect class="d" x="36" y="92" width="4" height="4"/><rect class="d" x="32" y="32" width="16" height="4"/><rect class="d" x="28" y="36" width="4" height="4"/><rect class="d" x="24" y="40" width="4" height="20"/><rect class="d" x="28" y="60" width="4" height="4"/><rect class="d" x="32" y="64" width="4" height="4"/><rect class="d" x="36" y="68" width="4" height="4"/><rect class="d" x="44" y="68" width="4" height="4"/><rect class="d" x="16" y="48" width="4" height="4"/><rect class="d" x="16" y="40" width="4" height="4"/><rect class="d" x="12" y="24" width="16" height="4"/><rect class="d" x="8" y="28" width="4" height="4"/><rect class="d" x="4" y="32" width="4" height="20"/><rect class="d" x="8" y="52" width="4" height="4"/><rect class="d" x="12" y="56" width="4" height="4"/><rect class="d" x="16" y="60" width="4" height="4"/><rect class="d" x="16" y="72" width="4" height="8"/><rect class="d" x="16" y="92" width="4" height="4"/><rect class="d" x="36" y="100" width="4" height="4"/><rect x="60" y="36" width="4" height="4"/><rect x="56" y="32" width="4" height="4"/><rect x="48" y="20" width="4" height="16"/><rect x="44" y="16" width="4" height="4"/><rect x="24" y="12" width="20" height="4"/><rect x="20" y="16" width="4" height="4"/><rect x="40" y="36" width="8" height="4"/><rect x="36" y="40" width="4" height="8"/><rect x="40" y="48" width="8" height="4"/><rect x="48" y="40" width="4" height="8"/><rect x="40" y="120" width="4" height="4"/><rect x="44" y="124" width="4" height="4"/><rect x="48" y="120" width="4" height="4"/><rect x="56" y="64" width="4" height="4"/><rect x="60" y="60" width="4" height="4"/><polygon points="68 48 72 48 72 20 68 20 68 40 64 40 64 60 68 60 68 48"/><rect x="72" y="16" width="4" height="4"/><rect x="76" y="12" width="16" height="4"/><polygon points="100 8 100 4 96 4 92 4 92 8 96 8 100 8"/><rect x="100" y="8" width="4" height="4"/><rect x="104" y="12" width="4" height="4"/><rect x="108" y="16" width="4" height="32"/><rect x="100" y="48" width="8" height="4"/><rect x="124" y="48" width="4" height="64"/><rect x="120" y="112" width="4" height="4"/><polygon points="56 116 56 68 52 68 52 120 120 120 120 116 56 116"/><rect x="36" y="24" width="4" height="4"/><rect x="20" y="28" width="8" height="4"/><rect x="16" y="32" width="4" height="8"/><rect x="16" y="80" width="4" height="4"/><rect x="20" y="84" width="4" height="4"/><rect x="16" y="96" width="4" height="4"/><rect x="20" y="100" width="4" height="4"/><rect x="20" y="112" width="4" height="4"/><rect x="24" y="116" width="4" height="4"/><rect x="28" y="112" width="4" height="4"/><polygon points="40 104 32 104 32 112 36 112 36 108 40 108 40 104"/><rect x="40" y="108" width="4" height="4"/><polygon points="32 88 32 100 36 100 36 92 40 92 40 88 32 88"/><rect x="40" y="92" width="4" height="4"/><rect x="32" y="72" width="4" height="8"/><rect class="e" x="92" y="12" width="8" height="4"/><rect class="e" x="88" y="8" width="4" height="4"/><rect class="e" x="68" y="12" width="4" height="4"/><rect class="e" x="64" y="16" width="4" height="4"/><rect class="e" x="100" y="16" width="4" height="32"/><polygon class="e" points="108 52 108 56 112 56 112 112 116 112 116 56 116 52 108 52"/><rect class="e" x="56" y="100" width="52" height="4"/><rect class="e" x="56" y="92" width="52" height="4"/><rect class="e" x="56" y="84" width="52" height="4"/><rect class="e" x="56" y="76" width="52" height="4"/><rect class="e" x="56" y="68" width="52" height="4"/><rect class="e" x="20" y="60" width="4" height="24"/><rect class="e" x="20" y="88" width="4" height="12"/><polygon class="e" points="28 108 24 108 24 104 20 104 20 112 24 112 24 116 28 116 28 112 32 112 32 68 28 68 28 108"/><rect class="e" x="44" y="44" width="4" height="4"/><polygon class="e" points="56 60 60 60 60 40 56 40 56 36 52 36 48 36 48 40 52 40 52 44 52 48 56 48 56 52 52 52 52 56 48 56 48 60 52 60 52 64 48 64 48 60 44 60 44 64 40 64 40 60 36 60 36 56 40 56 40 52 36 52 36 48 36 44 36 40 40 40 40 36 32 36 32 40 28 40 28 60 32 60 32 64 36 64 36 68 40 68 40 88 44 88 44 68 56 68 56 60"/><rect class="e" x="48" y="48" width="4" height="4"/><rect class="e" x="44" y="52" width="4" height="4"/><rect class="e" x="40" y="56" width="4" height="4"/><polygon class="e" points="44 104 44 100 44 96 40 96 40 100 40 104 40 108 44 108 44 104"/><rect class="e" x="36" y="108" width="4" height="4"/><polygon class="e" points="48 116 44 116 44 112 40 112 40 120 44 120 44 124 48 124 48 120 52 120 52 76 48 76 48 116"/><polygon class="e" points="36 20 36 24 40 24 40 28 48 28 48 24 44 24 44 20 40 20 40 16 28 16 28 20 36 20"/><polygon class="e" points="32 28 32 24 28 24 28 28 28 32 32 32 32 28"/><polygon class="e" points="20 60 20 52 16 52 16 48 20 48 20 44 16 44 16 32 20 32 20 28 12 28 12 32 8 32 8 52 12 52 12 56 16 56 16 60 20 60"/></svg>